<svg id="Layer_1" data-name="Layer 1" xmlns="http://www.w3.org/2000/svg" viewBox="0 0 381.86 131.73"><defs><style>.cls-1{fill:#3c3c3b;}</style></defs><title>smpsr1-2</title><path class="cls-1" d="M361.6,487.19c-8-6-9.44-9.09-9.44-16.28,0-6.41,1.36-11,6.56-11s6.47,4.22,6.47,11a4.22,4.22,0,0,0,4.21,4.21h3.53a4.21,4.21,0,0,0,4.21-4.21v-.33c0-10.44-3-21-18.19-21.06S340.12,461,340.12,472.66c0,13.27,5,18,14.68,25.58s11.74,10.95,11.74,21c0,7.52-1.88,12.44-7.72,12.44-5.69,0-8.08-4.06-8.08-11.49V519a4.22,4.22,0,0,0-4.21-4.21H342.9a4.21,4.21,0,0,0-4.2,4.21v1c0,11.83,4.07,22,19.79,22,16.08,0,20.18-11.84,20.18-24.53C378.67,502.47,374.63,496.92,361.6,487.19Z" transform="translate(-338.7 -410.24)"/><path class="cls-1" d="M576.87,450.9h-11a7.43,7.43,0,0,0-7.43,7.43v76.35a6,6,0,0,0,12,0v-32h5.71c16.73,0,21.49-9.89,21.49-24.16v-5.36C597.63,457.83,590.75,450.9,576.87,450.9Zm8.77,27.26c0,9-1.48,14.55-10.76,14.55h-4.45V460.94h5.51c8.35,0,9.7,5.79,9.7,12.63Z" transform="translate(-338.7 -410.24)"/><path class="cls-1" d="M640.92,487.19c-8-6-9.43-9.09-9.43-16.28,0-6.41,1.35-11,6.55-11s6.47,4.22,6.47,11a4.22,4.22,0,0,0,4.21,4.21h3.53a4.21,4.21,0,0,0,4.21-4.21v-.33c0-10.44-3-21-18.19-21.06S619.44,461,619.44,472.66c0,13.27,5,18,14.68,25.58s11.74,10.95,11.74,21c0,7.52-1.88,12.44-7.71,12.44s-8.09-4.06-8.09-11.49V519a4.21,4.21,0,0,0-4.21-4.21h-3.62A4.21,4.21,0,0,0,618,519v1c0,11.83,4.07,22,19.79,22,16.08,0,20.19-11.84,20.19-24.53C658,502.47,654,496.92,640.92,487.19Z" transform="translate(-338.7 -410.24)"/><path class="cls-1" d="M720.56,475.84v-3.71c0-15.61-7.47-21.23-21.06-21.23H687.32a5.54,5.54,0,0,0-5.53,5.54v79.09A5.16,5.16,0,0,0,687,540.7h1.69a5.17,5.17,0,0,0,5.18-5.17V499.8H698c8.4,0,9.91,2.85,9.91,14.08,0,5.07-.15,15.38.37,22.22a5,5,0,0,0,5,4.6H715a5,5,0,0,0,5-5.3c-.39-6.78-.32-16.55-.32-22.34,0-12.11-2.85-16.1-8.28-18.41C715.47,493.1,720.56,489,720.56,475.84Zm-12.09.55c0,9.7-2.5,13.37-10.33,13.37h-4.31V460.94h4.54c8.33,0,10.1,4.52,10.1,12Z" transform="translate(-338.7 -410.24)"/><path class="cls-1" d="M540.56,464.24l-73-54-74.82,53.92a5.45,5.45,0,0,0,6,9.13l9.59-7V495.7a5.51,5.51,0,1,0,11,0V459.63a6.08,6.08,0,0,0-.14-1.22l48-34.91,47.68,35.27v34.42a5.52,5.52,0,0,0,11,0V466.92l8.22,6.09a5.45,5.45,0,0,0,6.48-8.77Z" transform="translate(-338.7 -410.24)"/><path class="cls-1" d="M500.35,458.07h0c-4.39-6.43-9.34-7.89-12.72-8-8.09-.23-13.86,6.92-14.49,7.74a5.47,5.47,0,0,0-1.13,3.33v63.74a3.64,3.64,0,0,1-3.63,3.64h-.05a6.53,6.53,0,0,1-2-.36,3.66,3.66,0,0,1-2.43-3.44l-.74-63.12a5.44,5.44,0,0,0-1-3.07c-5-7.17-10.47-8.64-14.12-8.61-8.68.08-14.47,8.28-15.1,9.22h0a5.5,5.5,0,0,0-.93,3.05v58.13h0l0,14.65A5.46,5.46,0,0,0,443,535V521.17h0V466.32a5.21,5.21,0,0,1,2.11-4.18,5.63,5.63,0,0,1,3.13-1.31h0a3.09,3.09,0,0,1,1.38.36,5.12,5.12,0,0,1,2.75,4.57l.74,63.76a5.48,5.48,0,0,0,1.44,3.63h0c.58.63,5.85,6.12,13.52,6.27h.32c3.31,0,8.14-1,12.94-5.85h0a5.42,5.42,0,0,0,1.6-3.86V465.13a3.84,3.84,0,0,1,1.8-3.24,4.82,4.82,0,0,1,2.6-.91,2.65,2.65,0,0,1,1.17.33,3.71,3.71,0,0,1,1.92,3.3l.08,69.07a5.45,5.45,0,0,0,10.9,0l-.08-72.53A5.46,5.46,0,0,0,500.35,458.07Z" transform="translate(-338.7 -410.24)"/></svg>