<svg id="Layer_1" data-name="Layer 1" xmlns="http://www.w3.org/2000/svg" viewBox="0 0 152.54 130.19"><defs><style>.cls-1{fill:#3c3c3b;}</style></defs><title>smpsr1</title><path class="cls-1" d="M540.56,464.24l-73-54-74.82,53.92a5.45,5.45,0,0,0,6,9.13l9.59-7V495.7a5.51,5.51,0,1,0,11,0V459.63a6.08,6.08,0,0,0-.14-1.22l48-34.91,47.68,35.27v34.42a5.52,5.52,0,0,0,11,0V466.92l8.22,6.09a5.45,5.45,0,0,0,6.48-8.77Z" transform="translate(-390.23 -410.24)"/><path class="cls-1" d="M500.35,458.07h0c-4.39-6.43-9.34-7.89-12.72-8-8.09-.23-13.86,6.92-14.49,7.74a5.47,5.47,0,0,0-1.13,3.33v63.74a3.64,3.64,0,0,1-3.63,3.64h-.05a6.53,6.53,0,0,1-2-.36,3.66,3.66,0,0,1-2.43-3.44l-.74-63.12a5.44,5.44,0,0,0-1-3.07c-5-7.17-10.47-8.64-14.12-8.61-8.68.08-14.47,8.28-15.1,9.22h0a5.5,5.5,0,0,0-.93,3.05v58.13h0l0,14.65A5.46,5.46,0,0,0,443,535V521.17h0V466.32a5.21,5.21,0,0,1,2.11-4.18,5.63,5.63,0,0,1,3.13-1.31h0a3.09,3.09,0,0,1,1.38.36,5.12,5.12,0,0,1,2.75,4.57l.74,63.76a5.48,5.48,0,0,0,1.44,3.63h0c.58.63,5.85,6.12,13.52,6.27h.32c3.31,0,8.14-1,12.94-5.85h0a5.42,5.42,0,0,0,1.6-3.86V465.13a3.84,3.84,0,0,1,1.8-3.24,4.82,4.82,0,0,1,2.6-.91,2.65,2.65,0,0,1,1.17.33,3.71,3.71,0,0,1,1.92,3.3l.08,69.07a5.45,5.45,0,0,0,10.9,0l-.08-72.53A5.46,5.46,0,0,0,500.35,458.07Z" transform="translate(-390.23 -410.24)"/></svg>